<svg width="1922" height="597" viewBox="0 0 1922 597" fill="none" xmlns="http://www.w3.org/2000/svg">
<path d="M961 178.124C1067.81 178.124 1164.53 191.533 1234.57 213.225C1269.58 224.07 1297.95 236.993 1317.58 251.367C1337.2 265.734 1348.17 281.618 1348.17 298.389C1348.17 315.16 1337.2 331.044 1317.58 345.41C1297.95 359.784 1269.58 372.708 1234.57 383.553C1164.53 405.244 1067.81 418.653 961 418.653C854.188 418.653 757.467 405.244 687.434 383.553C652.42 372.708 624.048 359.784 604.419 345.41C584.8 331.044 573.828 315.16 573.828 298.389C573.828 281.618 584.8 265.734 604.419 251.367C624.048 236.993 652.42 224.07 687.434 213.225C757.467 191.533 854.188 178.124 961 178.124Z" stroke="#F15A22"/>
<path d="M961.094 142.75C1099.42 142.75 1224.67 160.119 1315.35 188.212C1360.69 202.258 1397.42 218.992 1422.83 237.599C1448.22 256.197 1462.39 276.734 1462.39 298.39C1462.39 320.045 1448.22 340.581 1422.83 359.18C1397.42 377.786 1360.69 394.521 1315.35 408.566C1224.67 436.66 1099.42 454.028 961.094 454.028C822.769 454.028 697.518 436.66 606.833 408.566C561.493 394.521 524.766 377.786 499.362 359.18C473.969 340.581 459.802 320.045 459.802 298.39C459.802 276.734 473.968 256.197 499.362 237.599C524.766 218.992 561.493 202.258 606.833 188.212C697.518 160.119 822.769 142.75 961.094 142.75Z" stroke="#F15A22"/>
<path d="M961 106.999C1131.15 106.999 1285.21 128.359 1396.75 162.904C1452.52 180.176 1497.69 200.753 1528.93 223.625C1560.15 246.489 1577.54 271.716 1577.54 298.295C1577.54 324.873 1560.15 350.1 1528.93 372.965C1497.69 395.837 1452.52 416.414 1396.75 433.686C1285.21 468.231 1131.15 489.591 961 489.591C790.849 489.591 636.787 468.231 525.245 433.686C469.478 416.414 424.311 395.837 393.075 372.965C361.85 350.1 344.459 324.873 344.459 298.295C344.459 271.716 361.85 246.49 393.075 223.625C424.311 200.753 469.478 180.176 525.245 162.904C636.787 128.359 790.849 106.999 961 106.999Z" stroke="#F15A22"/>
<path d="M961.094 71.249C1163.12 71.249 1346.04 96.6209 1478.47 137.653C1544.69 158.169 1598.31 182.607 1635.38 209.768C1672.45 236.921 1693.07 266.862 1693.07 298.39C1693.07 329.917 1672.45 359.859 1635.38 387.012C1598.31 414.172 1544.69 438.611 1478.47 459.126C1346.04 500.158 1163.12 525.53 961.094 525.53C759.066 525.53 576.144 500.158 443.713 459.126C377.5 438.611 323.881 414.172 286.804 387.012C249.737 359.859 229.116 329.917 229.116 298.39C229.116 266.862 249.737 236.921 286.804 209.768C323.881 182.607 377.5 158.169 443.713 137.653C576.144 96.6209 759.066 71.249 961.094 71.249Z" stroke="#F15A22"/>
<path d="M961 35.874C1194.59 35.874 1406.09 65.2048 1559.21 112.639C1635.76 136.355 1697.75 164.604 1740.62 195.997C1783.47 227.382 1807.29 261.977 1807.29 298.389C1807.29 334.8 1783.47 369.395 1740.62 400.78C1697.75 432.173 1635.76 460.423 1559.21 484.139C1406.09 531.573 1194.59 560.904 961 560.904C727.407 560.904 515.908 531.573 362.791 484.139C286.236 460.423 224.246 432.173 181.385 400.78C138.534 369.395 114.714 334.8 114.714 298.389C114.714 261.977 138.534 227.382 181.385 195.997C224.246 164.604 286.236 136.355 362.791 112.639C515.908 65.2048 727.407 35.874 961 35.874Z" stroke="#F15A22"/>
<path d="M961 0.5C1226.13 0.5 1466.18 33.7906 1639.97 87.626C1726.86 114.543 1797.21 146.604 1845.85 182.229C1894.48 217.846 1921.5 257.094 1921.5 298.39C1921.5 339.685 1894.48 378.933 1845.85 414.55C1797.21 450.175 1726.86 482.236 1639.97 509.152C1466.18 562.988 1226.13 596.278 961 596.278C695.867 596.278 455.815 562.988 282.029 509.152C195.14 482.236 124.787 450.175 76.1465 414.55C27.5161 378.933 0.500173 339.685 0.5 298.39C0.5 257.094 27.5159 217.846 76.1465 182.229C124.787 146.604 195.14 114.543 282.029 87.626C455.815 33.7906 695.867 0.5 961 0.5Z" stroke="#F15A22"/>
</svg>
